{
  "accessors": [
    {
      "bufferView": 2,
      "componentType": 5126,
      "count": 18989,
      "max": [
        1.25,
        0.21936599910259247,
        0.3332200050354004
      ],
      "min": [
        -1.25,
        -0.21936599910259247,
        -0.3881570100784302
      ],
      "type": "VEC3"
    },
    {
      "bufferView": 2,
      "byteOffset": 227868,
      "componentType": 5126,
      "count": 18989,
      "max": [
        1.0,
        1.0,
        1.0
      ],
      "min": [
        -1.0,
        -1.0,
        -1.0
      ],
      "type": "VEC3"
    },
    {
      "bufferView": 1,
      "componentType": 5126,
      "count": 18989,
      "max": [
        0.9975000023841858,
        2.0
      ],
      "min": [
        0.0,
        1.0062999725341797
      ],
      "type": "VEC2"
    },
    {
      "bufferView": 0,
      "componentType": 5125,
      "count": 39036,
      "type": "SCALAR"
    },
    {
      "bufferView": 2,
      "byteOffset": 455736,
      "componentType": 5126,
      "count": 1560,
      "max": [
        -0.24065899848937988,
        0.19624200463294983,
        -0.2367970049381256
      ],
      "min": [
        -0.591251015663147,
        -0.19544599950313568,
        -0.3874279856681824
      ],
      "type": "VEC3"
    },
    {
      "bufferView": 2,
      "byteOffset": 474456,
      "componentType": 5126,
      "count": 1560,
      "max": [
        0.9978381395339966,
        0.9999594688415527,
        0.9978381395339966
      ],
      "min": [
        -0.9978381395339966,
        -0.9999594688415527,
        -0.9978381395339966
      ],
      "type": "VEC3"
    },
    {
      "bufferView": 1,
      "byteOffset": 151912,
      "componentType": 5126,
      "count": 1560,
      "max": [
        1.000499963760376,
        1.998900055885315
      ],
      "min": [
        0.0017000000225380063,
        1.007200002670288
      ],
      "type": "VEC2"
    },
    {
      "bufferView": 0,
      "byteOffset": 156144,
      "componentType": 5125,
      "count": 5064,
      "type": "SCALAR"
    },
    {
      "bufferView": 2,
      "byteOffset": 493176,
      "componentType": 5126,
      "count": 16521,
      "max": [
        1.2347029447555542,
        0.16353100538253784,
        0.3881570100784302
      ],
      "min": [
        -1.2377179861068726,
        -0.1704760044813156,
        -0.2401680052280426
      ],
      "type": "VEC3"
    },
    {
      "bufferView": 2,
      "byteOffset": 691428,
      "componentType": 5126,
      "count": 16521,
      "max": [
        0.9999882578849792,
        1.0,
        0.9999996423721313
      ],
      "min": [
        -0.9999983310699463,
        -1.0,
        -0.9999998211860657
      ],
      "type": "VEC3"
    },
    {
      "bufferView": 1,
      "byteOffset": 164392,
      "componentType": 5126,
      "count": 16521,
      "max": [
        0.995199978351593,
        1.9945000410079956
      ],
      "min": [
        0.0035000001080334187,
        1.0053000450134277
      ],
      "type": "VEC2"
    },
    {
      "bufferView": 0,
      "byteOffset": 176400,
      "componentType": 5125,
      "count": 49437,
      "type": "SCALAR"
    },
    {
      "bufferView": 2,
      "byteOffset": 889680,
      "componentType": 5126,
      "count": 3068,
      "max": [
        1.2371759414672852,
        0.16353100538253784,
        0.3673030138015747
      ],
      "min": [
        -0.34970301389694214,
        -0.1704760044813156,
        -0.2401680052280426
      ],
      "type": "VEC3"
    },
    {
      "bufferView": 2,
      "byteOffset": 926496,
      "componentType": 5126,
      "count": 3068,
      "max": [
        0.9999923706054688,
        0.9999098777770996,
        0.9997294545173645
      ],
      "min": [
        -0.9999983906745911,
        -0.9999446868896484,
        -0.9992539882659912
      ],
      "type": "VEC3"
    },
    {
      "bufferView": 1,
      "byteOffset": 296560,
      "componentType": 5126,
      "count": 3068,
      "max": [
        0.995199978351593,
        1.9945000410079956
      ],
      "min": [
        0.009100000374019146,
        1.1312999725341797
      ],
      "type": "VEC2"
    },
    {
      "bufferView": 0,
      "byteOffset": 374148,
      "componentType": 5125,
      "count": 12669,
      "type": "SCALAR"
    },
    {
      "bufferView": 2,
      "byteOffset": 963312,
      "componentType": 5126,
      "count": 1392,
      "max": [
        0.4013189971446991,
        0.1627350002527237,
        0.33091598749160767
      ],
      "min": [
        -0.373198002576828,
        -0.1696459949016571,
        0.10571499913930893
      ],
      "type": "VEC3"
    },
    {
      "bufferView": 2,
      "byteOffset": 980016,
      "componentType": 5126,
      "count": 1392,
      "max": [
        0.9999895095825195,
        0.9999105930328369,
        0.9997264742851257
      ],
      "min": [
        -0.9999964237213135,
        -0.9999447464942932,
        -0.9987850189208984
      ],
      "type": "VEC3"
    },
    {
      "bufferView": 1,
      "byteOffset": 321104,
      "componentType": 5126,
      "count": 1392,
      "max": [
        0.9945999979972839,
        1.9945000410079956
      ],
      "min": [
        0.009100000374019146,
        1.3210999965667725
      ],
      "type": "VEC2"
    },
    {
      "bufferView": 0,
      "byteOffset": 424824,
      "componentType": 5125,
      "count": 5874,
      "type": "SCALAR"
    },
    {
      "bufferView": 2,
      "byteOffset": 996720,
      "componentType": 5126,
      "count": 1392,
      "max": [
        -0.44041699171066284,
        0.1627350002527237,
        0.012137999758124352
      ],
      "min": [
        -1.2143069505691528,
        -0.1696459949016571,
        -0.23090200126171112
      ],
      "type": "VEC3"
    },
    {
      "bufferView": 2,
      "byteOffset": 1013424,
      "componentType": 5126,
      "count": 1392,
      "max": [
        0.9976466298103333,
        0.9999100565910339,
        0.9999563694000244
      ],
      "min": [
        -0.998683750629425,
        -0.9999446272850037,
        -0.9938019514083862
      ],
      "type": "VEC3"
    },
    {
      "bufferView": 1,
      "byteOffset": 332240,
      "componentType": 5126,
      "count": 1392,
      "max": [
        0.9945999979972839,
        1.9945000410079956
      ],
      "min": [
        0.009100000374019146,
        1.3210999965667725
      ],
      "type": "VEC2"
    },
    {
      "bufferView": 0,
      "byteOffset": 448320,
      "componentType": 5125,
      "count": 5874,
      "type": "SCALAR"
    },
    {
      "bufferView": 2,
      "byteOffset": 1030128,
      "componentType": 5126,
      "count": 2640,
      "max": [
        1.1493589878082275,
        0.13967899978160858,
        0.23855899274349213
      ],
      "min": [
        -1.120205044746399,
        -0.14438900351524353,
        -0.2688480019569397
      ],
      "type": "VEC3"
    },
    {
      "bufferView": 2,
      "byteOffset": 1061808,
      "componentType": 5126,
      "count": 2640,
      "max": [
        0.9888055920600891,
        0.9999858140945435,
        0.9891372919082642
      ],
      "min": [
        -0.9876669645309448,
        -0.99995356798172,
        -0.9881879091262817
      ],
      "type": "VEC3"
    },
    {
      "bufferView": 1,
      "byteOffset": 343376,
      "componentType": 5126,
      "count": 2640,
      "max": [
        1.0,
        1.9938000440597534
      ],
      "min": [
        0.014800000004470348,
        1.0061999559402466
      ],
      "type": "VEC2"
    },
    {
      "bufferView": 0,
      "byteOffset": 471816,
      "componentType": 5125,
      "count": 8352,
      "type": "SCALAR"
    },
    {
      "bufferView": 2,
      "byteOffset": 1093488,
      "componentType": 5126,
      "count": 786,
      "max": [
        1.1565250158309937,
        0.1287190020084381,
        0.3632040023803711
      ],
      "min": [
        -1.1747349500656128,
        -0.13566499948501587,
        -0.098362997174263
      ],
      "type": "VEC3"
    },
    {
      "bufferView": 2,
      "byteOffset": 1102920,
      "componentType": 5126,
      "count": 786,
      "max": [
        0.5328802466392517,
        0.9270360469818115,
        0.9870770573616028
      ],
      "min": [
        -0.5675576329231262,
        -0.927084743976593,
        0.370402067899704
      ],
      "type": "VEC3"
    },
    {
      "bufferView": 1,
      "byteOffset": 364496,
      "componentType": 5126,
      "count": 786,
      "max": [
        30.0216007232666,
        150.45599365234375
      ],
      "min": [
        -162.6999969482422,
        -181.39500427246094
      ],
      "type": "VEC2"
    },
    {
      "bufferView": 0,
      "byteOffset": 505224,
      "componentType": 5125,
      "count": 2232,
      "type": "SCALAR"
    }
  ],
  "asset": {
    "extras": {
      "author": "maregajavier (https://sketchfab.com/maregajavier)",
      "license": "CC-BY-4.0 (http://creativecommons.org/licenses/by/4.0/)",
      "source": "https://sketchfab.com/3d-models/car-transport-trailer-e79c6159983c430dbaa6110cff5a8b92",
      "title": "Car Transport Trailer"
    },
    "generator": "Sketchfab-14.49.0",
    "version": "2.0"
  },
  "bufferViews": [
    {
      "buffer": 0,
      "byteLength": 514152,
      "name": "floatBufferViews",
      "target": 34963
    },
    {
      "buffer": 0,
      "byteLength": 370784,
      "byteOffset": 514152,
      "byteStride": 8,
      "name": "floatBufferViews",
      "target": 34962
    },
    {
      "buffer": 0,
      "byteLength": 1112352,
      "byteOffset": 884936,
      "byteStride": 12,
      "name": "floatBufferViews",
      "target": 34962
    }
  ],
  "buffers": [
    {
      "byteLength": 1997288,
      "uri": "scene.bin"
    }
  ],
  "images": [
    {
      "uri": "textures/car_transporter_baseColor.jpeg"
    },
    {
      "uri": "textures/cartrans_baseColor.jpeg"
    },
    {
      "uri": "textures/color_baseColor.jpeg"
    },
    {
      "uri": "textures/fabia_wheel_baseColor.jpeg"
    }
  ],
  "materials": [
    {
      "doubleSided": true,
      "name": "car_transporter",
      "pbrMetallicRoughness": {
        "baseColorTexture": {
          "index": 0
        },
        "metallicFactor": 0.0,
        "roughnessFactor": 0.6
      }
    },
    {
      "doubleSided": true,
      "name": "cartrans",
      "pbrMetallicRoughness": {
        "baseColorTexture": {
          "index": 1
        },
        "metallicFactor": 0.0,
        "roughnessFactor": 0.6
      }
    },
    {
      "doubleSided": true,
      "name": "color",
      "pbrMetallicRoughness": {
        "baseColorTexture": {
          "index": 2
        },
        "metallicFactor": 0.0,
        "roughnessFactor": 0.6
      }
    },
    {
      "doubleSided": true,
      "name": "color1",
      "pbrMetallicRoughness": {
        "baseColorTexture": {
          "index": 2
        },
        "metallicFactor": 0.0,
        "roughnessFactor": 0.6
      }
    },
    {
      "doubleSided": true,
      "name": "color2",
      "pbrMetallicRoughness": {
        "baseColorTexture": {
          "index": 2
        },
        "metallicFactor": 0.0,
        "roughnessFactor": 0.6
      }
    },
    {
      "doubleSided": true,
      "name": "color3",
      "pbrMetallicRoughness": {
        "metallicFactor": 0.0,
        "roughnessFactor": 0.6
      }
    },
    {
      "doubleSided": true,
      "name": "fabia_wheel",
      "pbrMetallicRoughness": {
        "baseColorTexture": {
          "index": 3
        },
        "metallicFactor": 0.0,
        "roughnessFactor": 0.6
      }
    },
    {
      "doubleSided": true,
      "name": "glas",
      "pbrMetallicRoughness": {
        "baseColorTexture": {
          "index": 2
        },
        "metallicFactor": 0.0,
        "roughnessFactor": 0.6
      }
    }
  ],
  "meshes": [
    {
      "name": "Object_0",
      "primitives": [
        {
          "attributes": {
            "NORMAL": 1,
            "POSITION": 0,
            "TEXCOORD_0": 2
          },
          "indices": 3,
          "material": 0,
          "mode": 4
        }
      ]
    },
    {
      "name": "Object_1",
      "primitives": [
        {
          "attributes": {
            "NORMAL": 5,
            "POSITION": 4,
            "TEXCOORD_0": 6
          },
          "indices": 7,
          "material": 1,
          "mode": 4
        }
      ]
    },
    {
      "name": "Object_2",
      "primitives": [
        {
          "attributes": {
            "NORMAL": 9,
            "POSITION": 8,
            "TEXCOORD_0": 10
          },
          "indices": 11,
          "material": 2,
          "mode": 4
        }
      ]
    },
    {
      "name": "Object_3",
      "primitives": [
        {
          "attributes": {
            "NORMAL": 13,
            "POSITION": 12,
            "TEXCOORD_0": 14
          },
          "indices": 15,
          "material": 3,
          "mode": 4
        }
      ]
    },
    {
      "name": "Object_4",
      "primitives": [
        {
          "attributes": {
            "NORMAL": 17,
            "POSITION": 16,
            "TEXCOORD_0": 18
          },
          "indices": 19,
          "material": 4,
          "mode": 4
        }
      ]
    },
    {
      "name": "Object_5",
      "primitives": [
        {
          "attributes": {
            "NORMAL": 21,
            "POSITION": 20,
            "TEXCOORD_0": 22
          },
          "indices": 23,
          "material": 5,
          "mode": 4
        }
      ]
    },
    {
      "name": "Object_6",
      "primitives": [
        {
          "attributes": {
            "NORMAL": 25,
            "POSITION": 24,
            "TEXCOORD_0": 26
          },
          "indices": 27,
          "material": 6,
          "mode": 4
        }
      ]
    },
    {
      "name": "Object_7",
      "primitives": [
        {
          "attributes": {
            "NORMAL": 29,
            "POSITION": 28,
            "TEXCOORD_0": 30
          },
          "indices": 31,
          "material": 7,
          "mode": 4
        }
      ]
    }
  ],
  "nodes": [
    {
      "children": [
        1
      ],
      "matrix": [
        6.341880798339844,
        0.0,
        0.0,
        0.0,
        0.0,
        1.4081804163490128e-15,
        -6.341880798339844,
        0.0,
        0.0,
        6.341880798339844,
        1.4081804163490128e-15,
        0.0,
        0.0,
        0.0,
        0.0,
        1.0
      ],
      "name": "Sketchfab_model"
    },
    {
      "children": [
        2,
        3,
        4,
        5,
        6,
        7,
        8,
        9
      ],
      "name": "KW552K3QGHVXS7VKA2AR1R8JY.obj.cleaner.materialmerger.gles"
    },
    {
      "mesh": 0,
      "name": "Object_2"
    },
    {
      "mesh": 1,
      "name": "Object_3"
    },
    {
      "mesh": 2,
      "name": "Object_4"
    },
    {
      "mesh": 3,
      "name": "Object_5"
    },
    {
      "mesh": 4,
      "name": "Object_6"
    },
    {
      "mesh": 5,
      "name": "Object_7"
    },
    {
      "mesh": 6,
      "name": "Object_8"
    },
    {
      "mesh": 7,
      "name": "Object_9"
    }
  ],
  "samplers": [
    {
      "magFilter": 9729,
      "minFilter": 9987,
      "wrapS": 10497,
      "wrapT": 10497
    }
  ],
  "scene": 0,
  "scenes": [
    {
      "name": "Sketchfab_Scene",
      "nodes": [
        0
      ]
    }
  ],
  "textures": [
    {
      "sampler": 0,
      "source": 0
    },
    {
      "sampler": 0,
      "source": 1
    },
    {
      "sampler": 0,
      "source": 2
    },
    {
      "sampler": 0,
      "source": 3
    }
  ]
}
